<svg xmlns="http://www.w3.org/2000/svg" width="30.116" height="36.319" viewBox="0 0 30.116 36.319"><defs><style>.a{fill:#fff;}</style></defs><path class="a" d="M143.185,21.459c3.074,0,5.683-2.33,6.612-5.547a10.354,10.354,0,0,0,2.08-6.369,7.272,7.272,0,0,0-8.785-6.963,6.819,6.819,0,0,1-4.325-.55,1,1,0,0,0-1.115.172A10.084,10.084,0,0,0,134.5,9.65a10.32,10.32,0,0,0,2.087,6.276C137.509,19.136,140.119,21.459,143.185,21.459Zm0-2.023c-2.731,0-4.954-2.731-4.954-6.083a6.839,6.839,0,0,1,1.437-4.282,8.619,8.619,0,0,0,8.449,3.817c.007.157.014.307.014.465C148.139,16.706,145.916,19.436,143.185,19.436Zm-4.618-15.3a8.814,8.814,0,0,0,4.925.415,5.277,5.277,0,0,1,6.362,5c-.021.536-.071,1.022-.136,1.487a1.015,1.015,0,0,0-.936-.3c-3.567.722-6.133-.472-8.078-3.774h0a1.009,1.009,0,0,0-1.5-.272h0a8.123,8.123,0,0,0-2.616,4.067,8.318,8.318,0,0,1,1.98-6.619Z" transform="translate(-128.131 -1.932)"/><path class="a" d="M71.506,305.173a31.918,31.918,0,0,0-22.1,0A6.2,6.2,0,0,0,45.4,311v5.976a1.007,1.007,0,0,0,1.008,1.008h28.1a1.007,1.007,0,0,0,1.008-1.008V311A6.221,6.221,0,0,0,71.506,305.173Zm-7.706.243-3.345,6.269-3.338-6.269A29.85,29.85,0,0,1,63.8,305.416ZM50.318,315.967H47.409v-4.961a4.229,4.229,0,0,1,1.458-3.2,14.592,14.592,0,0,1,1.444,6.333v1.823Zm18.25-1.83v1.83H52.341v-1.83a16.643,16.643,0,0,0-1.68-7.256A29.874,29.874,0,0,1,55,305.73l4.568,8.578a1.007,1.007,0,0,0,1.78,0l4.568-8.578a29.873,29.873,0,0,1,4.339,1.151A16.55,16.55,0,0,0,68.568,314.137Zm4.932,1.83H70.591v-1.83a14.694,14.694,0,0,1,1.444-6.333,4.229,4.229,0,0,1,1.458,3.2v4.968Z" transform="translate(-45.4 -281.664)"/></svg>