<svg xmlns="http://www.w3.org/2000/svg" width="30.116" height="38.288" viewBox="0 0 30.116 38.288"><defs><style>.a{fill:#4621ad;}</style></defs><path class="a" d="M82.373,26.025A31.628,31.628,0,0,0,76.056,24.4l-.528-2.465a12.106,12.106,0,0,1,2.4,1.153h0a1.114,1.114,0,0,0,1.508-.264,13.862,13.862,0,0,0,2.623-8.232C82.064,7.646,77.217,2,71.262,2s-10.8,5.646-10.8,12.582a13.865,13.865,0,0,0,2.654,8.27,1.076,1.076,0,0,0,1.447.256A11.85,11.85,0,0,1,67,21.909L66.46,24.4a32.147,32.147,0,0,0-6.317,1.628A6.072,6.072,0,0,0,56.2,31.687v7.538a1.062,1.062,0,0,0,1.063,1.063h27.99a1.062,1.062,0,0,0,1.063-1.063V31.687A6.068,6.068,0,0,0,82.373,26.025ZM71.262,21.4c-2.224,0-4.093-2.375-4.35-5.405a15.375,15.375,0,0,0,5.1-4.975,15.8,15.8,0,0,0,3.377,2.209,8.122,8.122,0,0,1,.264,2.043C75.649,18.645,73.682,21.4,71.262,21.4Zm0,2.126a5.332,5.332,0,0,0,2.314-.55l.6,2.759c-.09,1.229-1.854,2.533-2.91,3.166-1.146-.686-2.819-1.99-2.9-3.166l.588-2.744A5.268,5.268,0,0,0,71.262,23.522Zm-.482,7.546a1.07,1.07,0,0,0,.957,0c.415-.211,3.724-1.952,4.425-4.493.874.143,1.741.324,2.593.55a7.5,7.5,0,0,1-14.986,0c.859-.226,1.726-.4,2.593-.55C67.055,29.108,70.365,30.857,70.779,31.068Zm-6.5-10.275a11.9,11.9,0,0,1-1.7-6.2c0-5.767,3.89-10.456,8.677-10.456s8.677,4.689,8.677,10.456a11.875,11.875,0,0,1-1.7,6.2,15.071,15.071,0,0,0-1.658-.776,9.972,9.972,0,0,0,1.168-5.571,10.249,10.249,0,0,0-.513-2.465,1.141,1.141,0,0,0-.528-.49,14.116,14.116,0,0,1-4.2-2.9h0a1.068,1.068,0,0,0-1.7.256,13.2,13.2,0,0,1-5.488,5.594h0a1.068,1.068,0,0,0-.58.957h0a9.9,9.9,0,0,0,1.168,4.629A13.452,13.452,0,0,0,64.281,20.793ZM84.19,38.17H58.333V31.694A3.933,3.933,0,0,1,60.9,28.023c.256-.1.528-.181.784-.271a9.642,9.642,0,0,0,19.17,0c.264.09.528.173.784.271A3.943,3.943,0,0,1,84.2,31.694V38.17Z" transform="translate(-56.2 -2)"/></svg>